<?xml version="1.0" ?><svg style="enable-background:new 0 0 32 32;" version="1.1" viewBox="0 0 32 32" xml:space="preserve" xmlns="http://www.w3.org/2000/svg" xmlns:xlink="http://www.w3.org/1999/xlink"><style type="text/css">
	.st0{fill:#2BC20E;}
	.st1{fill:none;stroke:#222A30;stroke-width:1.8761;stroke-linejoin:round;stroke-miterlimit:10;}
	.st2{fill:#171715;}
	.st3{fill-rule:evenodd;clip-rule:evenodd;fill:#222A30;}
</style><g id="Layer_1"/><g id="icons"><g id="telegram"><path class="st0" d="M21,12.1L13.2,19c-0.1,0.1-0.1,0.2-0.1,0.3l-0.3,2.7c0,0.1-0.1,0.1-0.2,0l-1.2-4c-0.1-0.2,0-0.4,0.2-0.5    l9.1-5.7C21,11.7,21.2,12,21,12.1z"/><path class="st0" d="M16,2.2c-3.8,0-7.3,1.5-9.8,4c-2.5,2.5-4.1,6-4.1,9.8c0,3.8,1.5,7.3,4.1,9.8c2.5,2.5,6,4,9.8,4    c3.8,0,7.3-1.5,9.8-4c2.5-2.5,4.1-6,4.1-9.8C29.8,8.4,23.6,2.2,16,2.2z M24.2,10.1l-2.8,13.6c-0.1,0.6-0.9,0.9-1.4,0.5l-4.3-3.2    l-2.2,2.2c-0.4,0.4-1,0.2-1.2-0.3l-1.6-5l-4.2-1.3c-0.6-0.2-0.6-0.9,0-1.1l16.7-6.5C23.7,8.9,24.4,9.4,24.2,10.1z"/></g></g></svg>